<svg width="134" height="40" viewBox="0 0 134 40" fill="none" xmlns="http://www.w3.org/2000/svg">
<path d="M128.571 39.8584H5.16959C2.31433 39.8584 0 37.5903 0 34.7921V5.06627C0 2.26808 2.31433 0 5.16959 0H128.571C131.426 0 133.74 2.26835 133.74 5.06627V34.7924C133.74 37.5903 131.426 39.8584 128.571 39.8584Z" fill="white"/>
<path d="M42.2241 12.9834H42.7235L39.7998 6.75459H39.3367L36.4131 12.9834H36.9125L37.7206 11.2304H41.4069L42.2241 12.9834ZM37.9022 10.8478L39.5637 7.25289L41.2344 10.8478H37.9022Z" fill="#002534"/>
<path d="M46.8339 8.33847L44.9272 12.494L43.0386 8.33847H42.5574L44.6911 12.9834H45.1542L47.297 8.33847H46.8339Z" fill="#002534"/>
<path d="M49.7457 8.30288C49.0103 8.30288 48.3202 8.55203 47.8481 8.96135L48.0751 9.28169C48.4655 8.93466 49.0557 8.6944 49.7094 8.6944C50.6355 8.6944 51.1167 9.15711 51.1167 10.0202V10.394H49.4915C48.1749 10.394 47.721 10.9902 47.721 11.6931C47.721 12.4851 48.3656 13.019 49.4279 13.019C50.2542 13.019 50.8353 12.6897 51.1349 12.1558V12.9834H51.5707V10.038C51.5707 8.89016 50.917 8.30288 49.7457 8.30288ZM49.4915 12.6541C48.6562 12.6541 48.1749 12.2804 48.1749 11.6753C48.1749 11.1414 48.52 10.741 49.5006 10.741H51.1167V11.613C50.8444 12.2804 50.2905 12.6541 49.4915 12.6541Z" fill="#002534"/>
<path d="M53.6682 7.2084C53.877 7.2084 54.0405 7.04823 54.0405 6.84357C54.0405 6.64781 53.877 6.48764 53.6682 6.48764C53.4594 6.48764 53.2959 6.65671 53.2959 6.85247C53.2959 7.04823 53.4594 7.2084 53.6682 7.2084ZM53.4412 12.9834H53.8952V8.33847H53.4412V12.9834Z" fill="#002534"/>
<path d="M55.8087 12.9834H56.2626V6.38086H55.8087V12.9834Z" fill="#002534"/>
<path d="M59.7741 8.30288C59.0387 8.30288 58.3486 8.55203 57.8765 8.96135L58.1035 9.28169C58.4939 8.93466 59.0841 8.6944 59.7378 8.6944C60.6639 8.6944 61.1452 9.15711 61.1452 10.0202V10.394H59.5199C58.2034 10.394 57.7494 10.9902 57.7494 11.6931C57.7494 12.4851 58.394 13.019 59.4563 13.019C60.2826 13.019 60.8637 12.6897 61.1633 12.1558V12.9834H61.5991V10.038C61.5991 8.89016 60.9454 8.30288 59.7741 8.30288ZM59.5199 12.6541C58.6846 12.6541 58.2034 12.2804 58.2034 11.6753C58.2034 11.1414 58.5484 10.741 59.529 10.741H61.1452V11.613C60.8728 12.2804 60.3189 12.6541 59.5199 12.6541Z" fill="#002534"/>
<path d="M65.8485 8.30288C65.0132 8.30288 64.305 8.7033 63.9236 9.39736V6.38086H63.4696V12.9834H63.9055V11.8889C64.2777 12.6007 64.995 13.019 65.8485 13.019C67.1832 13.019 68.1911 12.049 68.1911 10.6609C68.1911 9.26389 67.1832 8.30288 65.8485 8.30288ZM65.8213 12.6185C64.7317 12.6185 63.9145 11.8266 63.9145 10.6609C63.9145 9.49525 64.7317 8.7033 65.8213 8.7033C66.9108 8.7033 67.7371 9.49525 67.7371 10.6609C67.7371 11.8266 66.9108 12.6185 65.8213 12.6185Z" fill="#002534"/>
<path d="M69.5966 12.9834H70.0506V6.38086H69.5966V12.9834Z" fill="#002534"/>
<path d="M75.9773 10.6431C75.9773 9.26389 75.0148 8.30288 73.7164 8.30288C72.4181 8.30288 71.4465 9.28169 71.4465 10.6609C71.4465 12.0401 72.4544 13.019 73.889 13.019C74.6063 13.019 75.26 12.7609 75.6777 12.2626L75.4143 11.969C75.0512 12.405 74.4973 12.6185 73.898 12.6185C72.7631 12.6185 71.9368 11.8711 71.8914 10.7677H75.9682C75.9682 10.7232 75.9773 10.6787 75.9773 10.6431ZM73.7164 8.6944C74.7243 8.6944 75.4688 9.41516 75.5324 10.4207H71.9005C71.9732 9.40626 72.7086 8.6944 73.7164 8.6944Z" fill="#002534"/>
<path d="M81.566 13.019C82.9279 13.019 83.9357 12.0401 83.9357 10.6609C83.9357 9.28169 82.9279 8.30288 81.566 8.30288C80.204 8.30288 79.1962 9.28169 79.1962 10.6609C79.1962 12.0401 80.204 13.019 81.566 13.019ZM81.566 12.6185C80.4764 12.6185 79.6592 11.8266 79.6592 10.6609C79.6592 9.49525 80.4764 8.7033 81.566 8.7033C82.6555 8.7033 83.4727 9.49525 83.4727 10.6609C83.4727 11.8266 82.6555 12.6185 81.566 12.6185Z" fill="#002534"/>
<path d="M87.6595 8.30288C86.7606 8.30288 86.0978 8.6944 85.78 9.34398V8.33847H85.3442V12.9834H85.7981V10.5096C85.7981 9.40626 86.4791 8.7033 87.5959 8.7033C88.5584 8.7033 89.1304 9.25499 89.1304 10.305V12.9834H89.5844V10.2694C89.5844 8.97025 88.8126 8.30288 87.6595 8.30288Z" fill="#002534"/>
<path d="M95.9464 12.3783C95.7557 12.5473 95.4924 12.6363 95.2109 12.6363C94.6298 12.6363 94.3302 12.3071 94.3302 11.7109V8.7211H95.8374V8.33847H94.3302V7.32407H93.8762V8.33847H93.0046V8.7211H93.8762V11.7554C93.8762 12.5384 94.3302 13.019 95.1655 13.019C95.5196 13.019 95.901 12.9122 96.137 12.6897L95.9464 12.3783Z" fill="#002534"/>
<path d="M99.7184 8.30288C98.8377 8.30288 98.1839 8.67661 97.8571 9.30838V6.38086H97.4031V12.9834H97.8571V10.5096C97.8571 9.40626 98.538 8.7033 99.6548 8.7033C100.617 8.7033 101.189 9.25499 101.189 10.305V12.9834H101.643V10.2694C101.643 8.97025 100.872 8.30288 99.7184 8.30288Z" fill="#002534"/>
<path d="M107.534 10.6431C107.534 9.26389 106.572 8.30288 105.274 8.30288C103.975 8.30288 103.004 9.28169 103.004 10.6609C103.004 12.0401 104.012 13.019 105.446 13.019C106.163 13.019 106.817 12.7609 107.235 12.2626L106.971 11.969C106.608 12.405 106.054 12.6185 105.455 12.6185C104.32 12.6185 103.494 11.8711 103.449 10.7677H107.525C107.525 10.7232 107.534 10.6787 107.534 10.6431ZM105.274 8.6944C106.281 8.6944 107.026 9.41516 107.09 10.4207H103.458C103.53 9.40626 104.266 8.6944 105.274 8.6944Z" fill="#002534"/>
<path d="M43.7565 26.8942C43.0741 27.2806 42.3311 27.4292 41.5729 27.4292C39.3287 27.4292 37.7365 25.8837 37.7365 23.7735C37.7365 21.6186 39.3287 20.1177 41.5881 20.1177C42.7254 20.1177 43.6807 20.4892 44.5147 21.3066L45.7581 20.1177C44.7573 19.0031 43.2713 18.4235 41.4971 18.4235C38.1762 18.4235 35.75 20.6675 35.75 23.7735C35.75 26.8794 38.1762 29.1234 41.4668 29.1234C42.968 29.1234 44.5147 28.6775 45.6217 27.8007V23.6546H43.7565V26.8942Z" fill="#002534"/>
<path d="M51.679 29.0788C54.1962 29.0788 56.0007 27.3846 56.0007 25.0069C56.0007 22.6292 54.1962 20.9499 51.679 20.9499C49.1922 20.9499 47.3725 22.6292 47.3725 25.0069C47.3725 27.3846 49.1922 29.0788 51.679 29.0788ZM51.679 27.4887C50.3143 27.4887 49.2831 26.5227 49.2831 25.0069C49.2831 23.4911 50.3143 22.5251 51.679 22.5251C53.0589 22.5251 54.0901 23.4911 54.0901 25.0069C54.0901 26.5227 53.0589 27.4887 51.679 27.4887Z" fill="#002534"/>
<path d="M61.4526 29.0788C63.9698 29.0788 65.7743 27.3846 65.7743 25.0069C65.7743 22.6292 63.9698 20.9499 61.4526 20.9499C58.9657 20.9499 57.1461 22.6292 57.1461 25.0069C57.1461 27.3846 58.9657 29.0788 61.4526 29.0788ZM61.4526 27.4887C60.0879 27.4887 59.0567 26.5227 59.0567 25.0069C59.0567 23.4911 60.0879 22.5251 61.4526 22.5251C62.8325 22.5251 63.8637 23.4911 63.8637 25.0069C63.8637 26.5227 62.8325 27.4887 61.4526 27.4887Z" fill="#002534"/>
<path d="M73.8192 21.0391V22.0942C73.152 21.3066 72.1512 20.9499 71.0139 20.9499C68.6938 20.9499 66.9196 22.4657 66.9196 24.7691C66.9196 27.0726 68.6938 28.6181 71.0139 28.6181C72.1057 28.6181 73.061 28.2763 73.7282 27.563V27.9791C73.7282 29.584 72.9397 30.3865 71.1504 30.3865C70.0282 30.3865 68.8758 30.015 68.1631 29.4354L67.3139 30.8324C68.2389 31.5754 69.7401 31.9618 71.2565 31.9618C74.0921 31.9618 75.6237 30.654 75.6237 27.771V21.0391H73.8192ZM71.302 27.0428C69.8614 27.0428 68.8303 26.1215 68.8303 24.7691C68.8303 23.4317 69.8614 22.5251 71.302 22.5251C72.7274 22.5251 73.7585 23.4317 73.7585 24.7691C73.7585 26.1215 72.7274 27.0428 71.302 27.0428Z" fill="#002534"/>
<path d="M78.1157 28.9748H80.0111V17.948H78.1157V28.9748Z" fill="#002534"/>
<path d="M90.1112 25.0515C90.1112 22.5697 88.3825 20.9499 86.017 20.9499C83.6059 20.9499 81.8317 22.644 81.8317 25.0069C81.8317 27.3698 83.5907 29.0788 86.3051 29.0788C87.7002 29.0788 88.8374 28.633 89.5653 27.7859L88.5493 26.6416C87.9731 27.2212 87.2604 27.5035 86.3506 27.5035C84.9403 27.5035 83.9547 26.7605 83.7272 25.6013H90.0809C90.096 25.423 90.1112 25.2001 90.1112 25.0515ZM86.017 22.436C87.2604 22.436 88.1551 23.2236 88.3067 24.3679H83.7121C83.894 23.2087 84.7887 22.436 86.017 22.436Z" fill="#002534"/>
<path d="M100.672 18.5722H96.3047V28.9748H98.276V25.9729H100.672C103.462 25.9729 105.191 24.5611 105.191 22.2725C105.191 19.9691 103.462 18.5722 100.672 18.5722ZM100.581 24.3382H98.276V20.2068H100.581C102.31 20.2068 103.204 20.9648 103.204 22.2725C103.204 23.5803 102.31 24.3382 100.581 24.3382Z" fill="#002534"/>
<path d="M107.125 28.9748H109.021V17.948H107.125V28.9748Z" fill="#002534"/>
<path d="M114.602 20.9499C113.298 20.9499 112.039 21.2768 111.175 21.9307L111.918 23.283C112.525 22.7926 113.465 22.4954 114.375 22.4954C115.724 22.4954 116.391 23.1344 116.391 24.2193V24.3382H114.299C111.842 24.3382 110.932 25.3784 110.932 26.701C110.932 28.0831 112.1 29.0788 113.95 29.0788C115.163 29.0788 116.043 28.6924 116.498 28.0088V28.9748H118.287V24.3233C118.287 22.0347 116.937 20.9499 114.602 20.9499ZM114.344 27.7264C113.374 27.7264 112.798 27.2955 112.798 26.6267C112.798 26.0472 113.146 25.5716 114.435 25.5716H116.391V26.493C116.073 27.3103 115.269 27.7264 114.344 27.7264Z" fill="#002534"/>
<path d="M126.334 21.0391L123.771 26.9091L121.224 21.0391H119.252L122.785 29.0045L122.649 29.3166C122.285 30.1042 121.891 30.4163 121.224 30.4163C120.708 30.4163 120.192 30.2082 119.828 29.8664L119.07 31.2336C119.586 31.6943 120.435 31.9618 121.239 31.9618C122.588 31.9618 123.619 31.4119 124.362 29.6138L128.153 21.0391H126.334Z" fill="#002534"/>
<path fill-rule="evenodd" clip-rule="evenodd" d="M19.1549 14.0661L23.7518 16.6442L20.4592 19.7366L9.0813 9.05029L19.1549 14.0661ZM24.4605 17.0412L28.6375 19.3833C28.884 19.5217 29.0312 19.7695 29.0312 20.046C29.0312 20.3225 28.884 20.5704 28.6377 20.7084L24.1648 23.2165L21.0252 20.2678L24.4605 17.0412ZM9.24833 31.3289L19.1723 26.0177L23.4559 23.615L20.459 20.8002L9.24833 31.3289ZM8.39844 31.0646L8.40892 9.48321L19.8928 20.2689L8.39844 31.0646Z" fill="#002534"/>
</svg>
