<svg width="34" height="32" viewBox="0 0 34 32" fill="none" xmlns="http://www.w3.org/2000/svg">
<g clip-path="url(#clip0_17_354)">
<path d="M33.4521 16C33.4521 7.1625 26.0505 0 16.9179 0C7.7854 0 0.383789 7.1625 0.383789 16C0.383789 24.8375 7.7854 32 16.9179 32C17.0148 32 17.1117 32 17.2086 31.9937V19.5438H13.6563V15.5375H17.2086V12.5875C17.2086 9.16875 19.3658 7.30625 22.5176 7.30625C24.0289 7.30625 25.3271 7.4125 25.7017 7.4625V11.0375H23.5316C21.82 11.0375 21.4842 11.825 21.4842 12.9812V15.5312H25.5854L25.0494 19.5375H21.4842V31.3813C28.3949 29.4625 33.4521 23.3062 33.4521 16Z" fill="white"/>
</g>
<defs>
<clipPath id="clip0_17_354">
<rect width="33.0683" height="32" fill="white" transform="translate(0.383789)"/>
</clipPath>
</defs>
</svg>
