<svg width="34" height="32" viewBox="0 0 34 32" fill="none" xmlns="http://www.w3.org/2000/svg">
<g clip-path="url(#clip0_17_349)">
<path d="M20.014 16C20.014 17.6914 18.5972 19.0625 16.8493 19.0625C15.1014 19.0625 13.6846 17.6914 13.6846 16C13.6846 14.3086 15.1014 12.9375 16.8493 12.9375C18.5972 12.9375 20.014 14.3086 20.014 16Z" fill="white"/>
<path d="M24.2513 10.5815C24.0992 10.1826 23.8565 9.82153 23.5411 9.52515C23.2348 9.21997 22.8619 8.98511 22.4494 8.83789C22.1149 8.71216 21.6123 8.5625 20.6867 8.52173C19.6853 8.47754 19.3851 8.46802 16.8501 8.46802C14.3148 8.46802 14.0146 8.47729 13.0135 8.52148C12.0878 8.5625 11.585 8.71216 11.2507 8.83789C10.8382 8.98511 10.4651 9.21997 10.1591 9.52515C9.84371 9.82153 9.60101 10.1824 9.44863 10.5815C9.3187 10.9053 9.16404 11.3918 9.12191 12.2876C9.07625 13.2563 9.06641 13.5469 9.06641 16.0002C9.06641 18.4534 9.07625 18.7439 9.12191 19.7129C9.16404 20.6086 9.3187 21.095 9.44863 21.4187C9.60101 21.8179 9.84346 22.1787 10.1588 22.4751C10.4651 22.7803 10.838 23.0151 11.2505 23.1624C11.585 23.2883 12.0878 23.438 13.0135 23.4788C14.0146 23.5229 14.3146 23.5322 16.8498 23.5322C19.3854 23.5322 19.6856 23.5229 20.6864 23.4788C21.6121 23.438 22.1149 23.2883 22.4494 23.1624C23.2775 22.8533 23.9319 22.22 24.2513 21.4187C24.3812 21.095 24.5359 20.6086 24.5783 19.7129C24.6239 18.7439 24.6335 18.4534 24.6335 16.0002C24.6335 13.5469 24.6239 13.2563 24.5783 12.2876C24.5361 11.3918 24.3815 10.9053 24.2513 10.5815ZM16.8501 20.7178C14.1574 20.7178 11.9746 18.6057 11.9746 16C11.9746 13.3943 14.1574 11.2822 16.8501 11.2822C19.5425 11.2822 21.7254 13.3943 21.7254 16C21.7254 18.6057 19.5425 20.7178 16.8501 20.7178ZM21.9181 12.1982C21.2889 12.1982 20.7788 11.7046 20.7788 11.0957C20.7788 10.4868 21.2889 9.99316 21.9181 9.99316C22.5473 9.99316 23.0575 10.4868 23.0575 11.0957C23.0572 11.7046 22.5473 12.1982 21.9181 12.1982Z" fill="white"/>
<path d="M16.8496 0C7.71941 0 0.31543 7.16479 0.31543 16C0.31543 24.8352 7.71941 32 16.8496 32C25.9797 32 33.3837 24.8352 33.3837 16C33.3837 7.16479 25.9797 0 16.8496 0ZM26.2865 19.7878C26.2406 20.7659 26.0799 21.4336 25.8453 22.0181C25.352 23.2522 24.3439 24.2278 23.0685 24.7051C22.4648 24.9321 21.7745 25.0874 20.7641 25.1321C19.7517 25.1768 19.4282 25.1875 16.8498 25.1875C14.2712 25.1875 13.948 25.1768 12.9353 25.1321C11.9249 25.0874 11.2346 24.9321 10.6308 24.7051C9.9971 24.4744 9.42339 24.1128 8.94908 23.6453C8.46619 23.1865 8.09255 22.6311 7.85414 22.0181C7.6195 21.4338 7.4588 20.7659 7.41288 19.7881C7.3662 18.8081 7.35536 18.4951 7.35536 16C7.35536 13.5049 7.3662 13.1919 7.41263 12.2122C7.45854 11.2341 7.619 10.5664 7.85363 9.98193C8.09205 9.3689 8.46594 8.81348 8.94908 8.35474C9.42313 7.88721 9.9971 7.52563 10.6306 7.29492C11.2346 7.06787 11.9246 6.9126 12.9353 6.86792C13.9477 6.82324 14.2712 6.8125 16.8496 6.8125C19.428 6.8125 19.7514 6.82324 20.7639 6.86816C21.7745 6.9126 22.4646 7.06787 23.0685 7.29468C23.702 7.52539 24.276 7.88721 24.7503 8.35474C25.2332 8.81372 25.6071 9.3689 25.8453 9.98193C26.0801 10.5664 26.2406 11.2341 26.2868 12.2122C26.3329 13.1919 26.3438 13.5049 26.3438 16C26.3438 18.4951 26.3329 18.8081 26.2865 19.7878Z" fill="white"/>
</g>
<defs>
<clipPath id="clip0_17_349">
<rect width="33.0683" height="32" fill="white" transform="translate(0.31543)"/>
</clipPath>
</defs>
</svg>
