<svg width="136" height="41" viewBox="0 0 136 41" fill="none" xmlns="http://www.w3.org/2000/svg">
<path d="M130.104 40.0507H6.10863C3.23983 40.0507 0.914062 37.7717 0.914062 34.96V5.09075C0.914062 2.27928 3.23952 0 6.10863 0H130.104C132.973 0 135.299 2.27928 135.299 5.09075V34.96C135.298 37.7714 132.973 40.0507 130.104 40.0507Z" fill="white"/>
<path d="M9.25745 16.3638C7.07738 20.0711 8.46336 25.6973 10.8737 29.1086C12.0774 30.8141 13.2954 32.3451 14.9642 32.3451C14.9956 32.3451 15.0271 32.3445 15.0592 32.3433C15.8432 32.3128 16.41 32.076 16.9576 31.8473C17.5724 31.5905 18.2089 31.325 19.2064 31.325C20.1553 31.325 20.7613 31.5818 21.3468 31.8303C21.9243 32.0754 22.5187 32.3283 23.3974 32.3122C25.2769 32.278 26.4311 30.6261 27.4493 29.1685C28.5119 27.6467 29.0448 26.1696 29.2244 25.6048L29.2317 25.5824C29.2659 25.4821 29.2174 25.3725 29.1193 25.3282C29.1166 25.3267 29.1065 25.3229 29.1038 25.3217C28.7727 25.1891 25.8694 23.9266 25.8389 20.4862C25.8108 17.6909 28.0171 16.2111 28.4593 15.9426L28.4801 15.9298C28.5281 15.8995 28.5616 15.8516 28.5726 15.7969C28.5839 15.7421 28.5723 15.6849 28.54 15.6388C27.0168 13.4544 24.6828 13.1255 23.7428 13.086C23.6066 13.0728 23.4658 13.0659 23.3244 13.0659C22.2206 13.0659 21.1629 13.4745 20.3136 13.8028C19.7272 14.0294 19.2205 14.2249 18.8714 14.2249C18.4786 14.2249 17.9692 14.0267 17.3794 13.7974C16.5905 13.4906 15.6963 13.1428 14.7501 13.1428C14.7272 13.1428 14.7052 13.1431 14.6835 13.1437C12.4833 13.1758 10.4037 14.4098 9.25745 16.3638Z" fill="#002534"/>
<path d="M23.7457 7.07413C22.4129 7.12741 20.8143 7.93136 19.859 9.02835C19.0466 9.94994 18.2537 11.4872 18.4626 13.0368C18.4757 13.1337 18.5564 13.2086 18.6559 13.2161C18.7457 13.2229 18.8373 13.2262 18.9293 13.2262C20.2325 13.2262 21.638 12.5199 22.5983 11.3822C23.6086 10.181 24.1196 8.63924 23.965 7.25851C23.9525 7.15016 23.8554 7.06994 23.7457 7.07413Z" fill="#002534"/>
<path d="M39.0117 12.9658H41.5389C43.5643 12.9658 44.9328 11.6604 44.9328 9.83642C44.9328 8.01245 43.5643 6.70707 41.5389 6.70707H39.0117V12.9658ZM39.477 12.5545V7.11835H41.5024C43.3088 7.11835 44.4675 8.24492 44.4675 9.83642C44.4675 11.4279 43.3088 12.5545 41.5024 12.5545H39.477Z" fill="#002534"/>
<path d="M48.2644 13.0015C49.6329 13.0015 50.6456 12.018 50.6456 10.6322C50.6456 9.24631 49.6329 8.2628 48.2644 8.2628C46.8959 8.2628 45.8832 9.24631 45.8832 10.6322C45.8832 12.018 46.8959 13.0015 48.2644 13.0015ZM48.2644 12.5992C47.1696 12.5992 46.3485 11.8034 46.3485 10.6322C46.3485 9.46089 47.1696 8.66514 48.2644 8.66514C49.3592 8.66514 50.1803 9.46089 50.1803 10.6322C50.1803 11.8034 49.3592 12.5992 48.2644 12.5992Z" fill="#002534"/>
<path d="M58.3135 8.29856L56.7078 12.4561L55.093 8.29856H54.7007L53.0767 12.4651L51.4892 8.29856H51.0513L52.8577 12.9658H53.2774L54.8923 8.91549L56.498 12.9658H56.9268L58.7332 8.29856H58.3135Z" fill="#002534"/>
<path d="M62.1208 8.2628C61.2175 8.2628 60.5515 8.6562 60.2322 9.3089V8.29856H59.7943V12.9658H60.2505V10.4802C60.2505 9.37148 60.9347 8.66514 62.0569 8.66514C63.024 8.66514 63.5987 9.21949 63.5987 10.2745V12.9658H64.0549V10.2388C64.0549 8.93337 63.2794 8.2628 62.1208 8.2628Z" fill="#002534"/>
<path d="M65.933 12.9658H66.3891V6.33154H65.933V12.9658Z" fill="#002534"/>
<path d="M70.173 13.0015C71.5415 13.0015 72.5542 12.018 72.5542 10.6322C72.5542 9.24631 71.5415 8.2628 70.173 8.2628C68.8045 8.2628 67.7918 9.24631 67.7918 10.6322C67.7918 12.018 68.8045 13.0015 70.173 13.0015ZM70.173 12.5992C69.0782 12.5992 68.2571 11.8034 68.2571 10.6322C68.2571 9.46089 69.0782 8.66514 70.173 8.66514C71.2678 8.66514 72.0889 9.46089 72.0889 10.6322C72.0889 11.8034 71.2678 12.5992 70.173 12.5992Z" fill="#002534"/>
<path d="M75.5573 8.2628C74.8183 8.2628 74.1249 8.51315 73.6505 8.92443L73.8786 9.24631C74.2709 8.89761 74.8639 8.6562 75.5208 8.6562C76.4514 8.6562 76.9349 9.12114 76.9349 9.98841V10.3639H75.3018C73.9789 10.3639 73.5228 10.963 73.5228 11.6693C73.5228 12.4651 74.1705 13.0015 75.238 13.0015C76.0682 13.0015 76.6521 12.6707 76.9532 12.1343V12.9658H77.3911V10.0063C77.3911 8.85291 76.7342 8.2628 75.5573 8.2628ZM75.3018 12.6349C74.4625 12.6349 73.9789 12.2594 73.9789 11.6514C73.9789 11.115 74.3256 10.7126 75.311 10.7126H76.9349V11.5889C76.6612 12.2594 76.1047 12.6349 75.3018 12.6349Z" fill="#002534"/>
<path d="M83.0566 6.33154V9.38042C82.6734 8.67409 81.9618 8.2628 81.1133 8.2628C79.7721 8.2628 78.7595 9.22843 78.7595 10.6322C78.7595 12.027 79.7721 13.0015 81.1133 13.0015C81.9709 13.0015 82.6916 12.5902 83.0657 11.866V12.9658H83.5127V6.33154H83.0566ZM81.1407 12.5992C80.0458 12.5992 79.2247 11.8034 79.2247 10.6322C79.2247 9.46089 80.0458 8.66514 81.1407 8.66514C82.2355 8.66514 83.0566 9.46089 83.0566 10.6322C83.0566 11.8034 82.2355 12.5992 81.1407 12.5992Z" fill="#002534"/>
<path d="M89.6404 13.0015C91.0089 13.0015 92.0216 12.018 92.0216 10.6322C92.0216 9.24631 91.0089 8.2628 89.6404 8.2628C88.2719 8.2628 87.2592 9.24631 87.2592 10.6322C87.2592 12.018 88.2719 13.0015 89.6404 13.0015ZM89.6404 12.5992C88.5456 12.5992 87.7245 11.8034 87.7245 10.6322C87.7245 9.46089 88.5456 8.66514 89.6404 8.66514C90.7352 8.66514 91.5563 9.46089 91.5563 10.6322C91.5563 11.8034 90.7352 12.5992 89.6404 12.5992Z" fill="#002534"/>
<path d="M95.7632 8.2628C94.86 8.2628 94.194 8.6562 93.8747 9.3089V8.29856H93.4368V12.9658H93.8929V10.4802C93.8929 9.37148 94.5772 8.66514 95.6994 8.66514C96.6664 8.66514 97.2412 9.21949 97.2412 10.2745V12.9658H97.6974V10.2388C97.6974 8.93337 96.9219 8.2628 95.7632 8.2628Z" fill="#002534"/>
<path d="M104.09 12.3578C103.898 12.5277 103.634 12.6171 103.351 12.6171C102.767 12.6171 102.466 12.2863 102.466 11.6872V8.68303H103.981V8.29856H102.466V7.27929H102.01V8.29856H101.134V8.68303H102.01V11.7319C102.01 12.5187 102.466 13.0015 103.305 13.0015C103.661 13.0015 104.044 12.8942 104.282 12.6707L104.09 12.3578Z" fill="#002534"/>
<path d="M107.88 8.2628C106.995 8.2628 106.338 8.63832 106.01 9.27313V6.33154H105.554V12.9658H106.01V10.4802C106.01 9.37148 106.694 8.66514 107.816 8.66514C108.783 8.66514 109.358 9.21949 109.358 10.2745V12.9658H109.814V10.2388C109.814 8.93337 109.039 8.2628 107.88 8.2628Z" fill="#002534"/>
<path d="M115.734 10.6143C115.734 9.22843 114.767 8.2628 113.462 8.2628C112.158 8.2628 111.181 9.24631 111.181 10.6322C111.181 12.018 112.194 13.0015 113.636 13.0015C114.356 13.0015 115.013 12.7422 115.433 12.2415L115.168 11.9465C114.803 12.3846 114.247 12.5992 113.645 12.5992C112.504 12.5992 111.674 11.8481 111.628 10.7395H115.725C115.725 10.6948 115.734 10.65 115.734 10.6143ZM113.462 8.6562C114.475 8.6562 115.223 9.38042 115.287 10.3908H111.637C111.71 9.37148 112.449 8.6562 113.462 8.6562Z" fill="#002534"/>
<path d="M46.7073 28.9253H48.8277L43.9009 18.2297H41.9053L36.9941 28.9253H39.0833L40.1591 26.45H45.616L46.7073 28.9253ZM40.8451 24.8915L42.8875 20.216L44.9455 24.8915H40.8451Z" fill="#002534"/>
<path d="M54.6435 20.6744C53.5054 20.6744 52.5387 21.0564 51.8839 21.8357V20.7661H50.0286V31.8895H51.9774V27.9322C52.6478 28.6808 53.5833 29.0323 54.6435 29.0323C57.0757 29.0323 58.8687 27.3821 58.8687 24.8457C58.8687 22.3246 57.0757 20.6744 54.6435 20.6744ZM54.4252 27.3974C53.022 27.3974 51.9463 26.4042 51.9463 24.8457C51.9463 23.2872 53.022 22.294 54.4252 22.294C55.8284 22.294 56.8886 23.2872 56.8886 24.8457C56.8886 26.4042 55.8284 27.3974 54.4252 27.3974Z" fill="#002534"/>
<path d="M65.3318 20.6744C64.1937 20.6744 63.2271 21.0564 62.5722 21.8357V20.7661H60.7169V31.8895H62.6658V27.9322C63.3362 28.6808 64.2717 29.0323 65.3318 29.0323C67.764 29.0323 69.557 27.3821 69.557 24.8457C69.557 22.3246 67.764 20.6744 65.3318 20.6744ZM65.1136 27.3974C63.7104 27.3974 62.6346 26.4042 62.6346 24.8457C62.6346 23.2872 63.7104 22.294 65.1136 22.294C66.5168 22.294 67.5769 23.2872 67.5769 24.8457C67.5769 26.4042 66.5168 27.3974 65.1136 27.3974Z" fill="#002534"/>
<path d="M79.2844 29.0781C82.2779 29.0781 83.6967 27.6113 83.6967 25.9C83.6967 21.9732 77.2264 23.4553 77.2264 21.1786C77.2264 20.3688 77.9124 19.7271 79.5962 19.7271C80.5473 19.7271 81.6231 20.0021 82.6053 20.5675L83.2445 19.0242C82.2935 18.4131 80.9215 18.0769 79.6118 18.0769C76.6184 18.0769 75.2152 19.5437 75.2152 21.2703C75.2152 25.243 81.701 23.7303 81.701 26.0375C81.701 26.832 80.9838 27.4279 79.2844 27.4279C77.9436 27.4279 76.556 26.939 75.6829 26.2514L74.9813 27.7946C75.8856 28.5586 77.585 29.0781 79.2844 29.0781Z" fill="#002534"/>
<path d="M89.9784 27.1223C89.6821 27.3515 89.2924 27.4585 88.887 27.4585C88.1386 27.4585 87.7333 27.0307 87.7333 26.2361V22.3552H89.9628V20.8272H87.7333V18.9631H85.7844V20.8272H84.4124V22.3552H85.7844V26.282C85.7844 28.0849 86.829 29.0323 88.6531 29.0323C89.3547 29.0323 90.0563 28.8489 90.5241 28.4822L89.9784 27.1223Z" fill="#002534"/>
<path d="M95.595 29.0323C98.1831 29.0323 100.038 27.2904 100.038 24.8457C100.038 22.401 98.1831 20.6744 95.595 20.6744C93.0381 20.6744 91.1672 22.401 91.1672 24.8457C91.1672 27.2904 93.0381 29.0323 95.595 29.0323ZM95.595 27.3974C94.1918 27.3974 93.1316 26.4042 93.1316 24.8457C93.1316 23.2872 94.1918 22.294 95.595 22.294C97.0138 22.294 98.074 23.2872 98.074 24.8457C98.074 26.4042 97.0138 27.3974 95.595 27.3974Z" fill="#002534"/>
<path d="M103.757 21.9579V20.7661H101.902V28.9253H103.851V24.9679C103.851 23.3025 104.786 22.4468 106.268 22.4468C106.408 22.4468 106.548 22.4621 106.72 22.4927V20.6744C105.332 20.6744 104.319 21.1022 103.757 21.9579Z" fill="#002534"/>
<path d="M116.123 24.8915C116.123 22.3399 114.346 20.6744 111.914 20.6744C109.435 20.6744 107.611 22.4163 107.611 24.8457C107.611 27.2751 109.419 29.0323 112.21 29.0323C113.645 29.0323 114.814 28.5739 115.562 27.703L114.518 26.5264C113.925 27.1223 113.192 27.4127 112.257 27.4127C110.807 27.4127 109.794 26.6487 109.56 25.4569H116.092C116.108 25.2735 116.123 25.0443 116.123 24.8915ZM111.914 22.2024C113.192 22.2024 114.112 23.0122 114.268 24.1887H109.544C109.731 22.9969 110.651 22.2024 111.914 22.2024Z" fill="#002534"/>
</svg>
