<svg width="33" height="32" viewBox="0 0 33 32" fill="none" xmlns="http://www.w3.org/2000/svg">
<g clip-path="url(#clip0_17_356)">
<path d="M16.3151 0.639648C7.83188 0.639648 0.955078 7.51645 0.955078 15.9996C0.955078 24.4828 7.83188 31.3596 16.3151 31.3596C24.7983 31.3596 31.6751 24.4828 31.6751 15.9996C31.6751 7.51645 24.7983 0.639648 16.3151 0.639648ZM12.5551 22.366H9.44468V12.3564H12.5551V22.366ZM10.9807 11.1276C9.99828 11.1276 9.36308 10.4316 9.36308 9.57085C9.36308 8.69245 10.0175 8.01725 11.0207 8.01725C12.0239 8.01725 12.6383 8.69245 12.6575 9.57085C12.6575 10.4316 12.0239 11.1276 10.9807 11.1276ZM23.9151 22.366H20.8047V16.8188C20.8047 15.5276 20.3535 14.6508 19.2287 14.6508C18.3695 14.6508 17.8591 15.2444 17.6335 15.8156C17.5503 16.0188 17.5295 16.3068 17.5295 16.5932V22.3644H14.4175V15.5484C14.4175 14.2989 14.3775 13.254 14.3359 12.3548H17.0383L17.1807 13.7452H17.2431C17.6527 13.0924 18.6559 12.1292 20.3343 12.1292C22.3807 12.1292 23.9151 13.5004 23.9151 16.4476V22.366Z" fill="white"/>
</g>
<defs>
<clipPath id="clip0_17_356">
<rect width="32" height="32" fill="white" transform="translate(0.31543)"/>
</clipPath>
</defs>
</svg>
